#!OML:ASF E:\acrobat2\Project_11_07_03\Capture day 1\Session 1\Acrobat.ASF
:FULLY-SPECIFIED
:DEGREES
289
root 2.67 18.2359 7.62229 7.28713 3.0688 1.14401
lowerback -7.05303 1.00036 0.329157
upperback -2.42273 1.35668 -2.29709
thorax 1.51717 0.673106 -2.43948
lowerneck -1.68961 -2.75143 -2.08206
upperneck -4.14585 -3.49404 5.47305
head -0.86309 -1.76785 2.07303
rclavicle 1.98847e-014 -1.63003e-014
rhumerus -45.3218 -15.3127 -74.1992
rradius 20.5727
rwrist 2.5586
rhand -7.42904 313.209
rfingers 7.12502
rthumb 18.4581 644.065
lclavicle 1.98847e-014 -1.63003e-014
lhumerus -398.044 10.277 -289.072
lradius 14.9962
lwrist -6.76838
lhand 7.11339 -5.23655
lfingers 7.12502
lthumb 32.3836 21.8917
rfemur 7.30779 7.46284 22.2958
rtibia -3.47261
rfoot -17.8272 -11.3728
rtoes 15.7696
lfemur 2.36944 -0.360706 -18.5746
ltibia 2.37396
lfoot -9.50906 -6.29123
ltoes 27.779
290
root 2.669 18.2368 7.59718 7.35995 2.99556 1.03332
lowerback -7.35506 1.07532 0.274267
upperback -2.39995 1.46275 -2.26865
thorax 1.71098 0.727362 -2.36497
lowerneck -1.24743 -2.84011 -2.27108
upperneck -4.77714 -3.58228 5.74187
head -1.12733 -1.82467 2.21421
rclavicle 1.59028e-014 -5.56597e-015
rhumerus -44.3601 -12.4876 -76.5398
rradius 22.003
rwrist -0.336053
rhand -6.69406 315.894
rfingers 7.12502
rthumb 19.165 646.819
lclavicle 1.59028e-014 -5.56597e-015
lhumerus -396.81 7.9087 -286.983
lradius 15.6473
lwrist -4.72236
lhand 6.36116 -9.00634
lfingers 7.12502
lthumb 31.6674 18.2657
rfemur 7.1345 7.78193 22.4982
rtibia -3.59156
rfoot -17.6731 -12.2331
rtoes 14.017
lfemur 2.29232 -0.568553 -18.4868
ltibia 2.22707
lfoot -9.5649 -5.93039
ltoes 27.8086
291
root 2.67614 18.2376 7.5796 7.33489 3.0203 1.09381
lowerback -7.73624 1.07247 0.0797306
upperback -2.24255 1.4796 -2.24652
thorax 2.08017 0.738191 -2.22316
lowerneck -0.756687 -2.88189 -2.64956
upperneck -5.48052 -3.59973 6.17227
head -1.42389 -1.84704 2.44873
rclavicle -1.86982e-015 7.15625e-015
rhumerus -43.3788 -9.70513 -78.5682
rradius 23.5222
rwrist -2.36092
rhand -6.11767 318.778
rfingers 7.12502
rthumb 19.7192 649.758
lclavicle -1.86982e-015 7.15625e-015
lhumerus -395.705 4.97238 -284.533
lradius 16.8786
lwrist -1.7549
lhand 5.10826 -11.695
lfingers 7.12502
lthumb 30.4732 15.8055
rfemur 7.05987 7.28544 22.3608
rtibia -3.56959
rfoot -17.1393 -12.4259
rtoes 11.1168
lfemur 2.46654 -0.680711 -18.6485
ltibia 1.87023
lfoot -9.45603 -5.71873
ltoes 27.7032
292
root 2.68585 18.237 7.56286 7.22942 3.06295 1.123
lowerback -7.92374 1.02087 -0.060661
upperback -2.12293 1.42544 -2.21017
thorax 2.30126 0.71214 -2.10769
lowerneck -0.307077 -2.93045 -2.90691
upperneck -5.99307 -3.64269 6.38817
head -1.65918 -1.87885 2.58926
rclavicle -6.85186e-015 3.57812e-015
rhumerus -42.4675 -7.24462 -80.2087
rradius 24.9504
rwrist -3.09211
rhand -5.7226 319.987
rfingers 7.12502
rthumb 20.099 651.007
lclavicle -6.85186e-015 3.57812e-015
lhumerus -394.782 1.94236 -282.209
lradius 18.5338
lwrist 1.84064
lhand 3.86513 -12.6923
lfingers 7.12502
lthumb 29.2869 15.0217
rfemur 7.11602 6.88178 22.2736
rtibia -3.55245
rfoot -16.8356 -12.3259
rtoes 10.247
lfemur 2.63014 -0.635352 -18.7499
ltibia 1.70361
lfoot -9.34295 -5.7018
ltoes 27.2561
293
root 2.69121 18.236 7.5399 7.10654 3.04856 0.973175
lowerback -7.84825 1.04623 -0.0372423
upperback -2.18314 1.45465 -2.19087
thorax 2.19835 0.726128 -2.09976
lowerneck 0.272408 -3.05197 -2.84679
upperneck -6.24123 -3.80367 6.36943
head -1.83582 -1.97132 2.59393
rclavicle -6.08157e-015 -2.78299e-015
rhumerus -41.914 -5.50103 -81.3999
rradius 26.3842
rwrist -2.64051
rhand -5.47483 319.38
rfingers 7.12502
rthumb 20.3371 650.425
lclavicle -6.08157e-015 -2.78299e-015
lhumerus -394.126 -0.563276 -280.483
lradius 20.1874
lwrist 4.91193
lhand 2.33407 -13.5802
lfingers 7.12502
lthumb 27.824 14.3797
rfemur 7.18363 7.26558 22.5384
rtibia -3.57002
rfoot -16.9827 -12.6642
rtoes 11.4495
lfemur 2.75196 -0.552757 -18.5319
ltibia 1.55835
lfoot -9.19667 -5.71706
ltoes 27.1007
294
root 2.6988 18.2374 7.51775 6.97756 3.04712 0.755047
lowerback -7.81358 1.09455 0.0955448
upperback -2.21179 1.50736 -2.18202
thorax 2.15462 0.752471 -2.16108
lowerneck 0.773704 -3.10469 -2.84487
upperneck -6.45799 -3.8651 6.50652
head -1.99151 -2.01473 2.65906
rclavicle -2.50717e-014 9.14409e-015
rhumerus -41.2939 -4.28168 -82.2587
rradius 27.7374
rwrist -1.92304
rhand -5.78 319.053
rfingers 7.12502
rthumb 20.0438 650.067
lclavicle -2.50717e-014 9.14409e-015
lhumerus -393.546 -2.54525 -279.18
lradius 22.0642
lwrist 7.46746
lhand 0.80499 -14.4094
lfingers 7.12502
lthumb 26.3612 13.7783
rfemur 7.22678 7.541 22.8468
rtibia -3.54305
rfoot -16.9817 -12.9857
rtoes 12.0115
lfemur 2.94869 -0.431706 -18.2111
ltibia 1.22926
lfoot -8.92807 -5.69097
ltoes 26.4823
295
root 2.71134 18.2417 7.49599 6.84038 3.06608 0.654822
lowerback -7.83018 1.0501 0.107276
upperback -2.15737 1.44709 -2.13333
thorax 2.21668 0.722915 -2.12238
lowerneck 1.26533 -2.95084 -3.05869
upperneck -6.85694 -3.64121 6.75443
head -2.21762 -1.91543 2.80278
rclavicle 2.965e-014 5.56597e-015
rhumerus -40.4354 -3.14145 -82.8814
rradius 28.9799
rwrist -1.62121
rhand -6.60133 319.654
rfingers 7.12502
rthumb 19.2542 650.587
lclavicle 2.965e-014 5.56597e-015
lhumerus -392.932 -4.01909 -278.099
lradius 24.1966
lwrist 9.46572
lhand -0.397488 -14.4574
lfingers 7.12502
lthumb 25.2096 13.8975
rfemur 7.24093 7.44967 22.9158
rtibia -3.45485
rfoot -16.7177 -13.0858
rtoes 10.9537
lfemur 3.12872 -0.479722 -18.1158
ltibia 0.959782
lfoot -8.66782 -5.57907
ltoes 26.4482
296
root 2.72754 18.247 7.47247 6.71374 3.13207 0.770074
lowerback -7.7849 0.962683 -0.0925194
upperback -2.15597 1.34553 -2.12055
thorax 2.18426 0.67155 -2.00721
lowerneck 1.92325 -2.8611 -3.18191
upperneck -7.20822 -3.51745 6.81003
head -2.45983 -1.86565 2.87039
rclavicle 3.45388e-015 -2.8625e-014
rhumerus -39.7323 -2.09248 -83.3288
rradius 30.2669
rwrist -1.72125
rhand -7.51158 319.922
rfingers 7.12502
rthumb 18.3787 650.77
lclavicle 3.45388e-015 -2.8625e-014
lhumerus -392.383 -5.37362 -277.063
lradius 26.2127
lwrist 10.971
lhand -2.03516 -15.1228
lfingers 7.12502
lthumb 23.6397 13.4438
rfemur 7.24809 7.36716 22.7031
rtibia -3.36013
rfoot -16.6227 -13.1682
rtoes 9.77059
lfemur 3.25307 -0.625846 -18.3238
ltibia 0.830133
lfoot -8.43539 -5.50885
ltoes 27.5898
297
root 2.75125 18.253 7.45184 6.58672 3.25622 0.884343
lowerback -7.68615 0.907269 -0.172745
upperback -2.2239 1.27655 -2.16243
thorax 2.05617 0.63631 -2.01391
lowerneck 2.45772 -2.88707 -3.26114
upperneck -7.13705 -3.56591 6.85969
head -2.53075 -1.89695 2.91635
rclavicle -4.74598e-015 2.50469e-014
rhumerus -39.1525 -1.24492 -83.6537
rradius 31.4345
rwrist -1.99658
rhand -8.35986 319.879
rfingers 7.12502
rthumb 17.5626 650.653
lclavicle -4.74598e-015 2.50469e-014
lhumerus -391.829 -6.51636 -276.213
lradius 27.8904
lwrist 12.2081
lhand -3.50814 -16.5866
lfingers 7.12502
lthumb 22.2262 12.1554
rfemur 7.26554 7.15476 22.4497
rtibia -3.24283
rfoot -16.6542 -13.0702
rtoes 9.96601
lfemur 3.41091 -0.693194 -18.5829
ltibia 0.702115
lfoot -8.25843 -5.46368
ltoes 28.3286
298
root 2.77855 18.2604 7.4294 6.49393 3.40769 0.765753
lowerback -7.58174 0.892808 0.00444729
upperback -2.30905 1.24076 -2.1506
thorax 1.91257 0.617891 -2.10684
lowerneck 2.60735 -2.89487 -3.41214
upperneck -6.68292 -3.59724 7.02994
head -2.40114 -1.91219 2.99461
rclavicle -1.28713e-014 -1.55052e-014
rhumerus -38.5242 -0.60161 -83.8562
rradius 32.416
rwrist -2.51049
rhand -8.98998 320.06
rfingers 7.12502
rthumb 16.9561 650.78
lclavicle -1.28713e-014 -1.55052e-014
lhumerus -391.208 -7.32775 -275.595
lradius 29.3567
lwrist 12.8597
lhand -3.97132 -17.1652
lfingers 7.12502
lthumb 21.7815 11.6292
rfemur 7.24436 7.03348 22.4904
rtibia -3.15886
rfoot -16.736 -12.9509
rtoes 11.7672
lfemur 3.46736 -0.864602 -18.6194
ltibia 0.636631
lfoot -8.29111 -5.21084
ltoes 27.7632
299
root 2.79954 18.2652 7.4005 6.47936 3.49568 0.502469
lowerback -7.50725 0.923008 0.222642
upperback -2.38447 1.26148 -2.09733
thorax 1.79766 0.627538 -2.17434
lowerneck 2.56969 -2.93583 -3.30571
upperneck -6.26106 -3.66658 7.02047
head -2.2515 -1.94472 2.96025
rclavicle 1.51201e-014 -1.07344e-014
rhumerus -37.9697 -0.224218 -84.0029
rradius 33.4787
rwrist -3.28956
rhand -9.19265 320.166
rfingers 7.12502
rthumb 16.761 650.87
lclavicle 1.51201e-014 -1.07344e-014
lhumerus -390.565 -8.21567 -275.055
lradius 30.9149
lwrist 13.2391
lhand -3.92803 -16.615
lfingers 7.12502
lthumb 21.8231 12.1745
rfemur 7.14783 7.37841 22.808
rtibia -3.17508
rfoot -16.8156 -13.3118
rtoes 12.419
lfemur 3.30147 -1.04453 -18.4171
ltibia 0.734112
lfoot -8.40105 -4.92522
ltoes 27.186
300
root 2.81674 18.2664 7.37199 6.49049 3.42219 0.33063
lowerback -7.47306 0.990648 0.282089
upperback -2.41391 1.34536 -2.0552
thorax 1.75204 0.669065 -2.15744
lowerneck 2.49784 -2.98483 -3.17767
upperneck -6.02989 -3.73595 7.01811
head -2.15964 -1.97881 2.92869
rclavicle -2.01145e-014 1.03368e-014
rhumerus -37.4409 0.0236564 -84.1202
rradius 34.636
rwrist -4.22148
rhand -9.19667 320.293
rfingers 7.12502
rthumb 16.7571 650.996
lclavicle -2.01145e-014 1.03368e-014
lhumerus -389.855 -9.30085 -274.528
lradius 32.4368
lwrist 13.8674
lhand -3.81456 -15.6546
lfingers 7.12502
lthumb 21.932 13.1222
rfemur 7.00459 7.96988 23.0443
rtibia -3.17636
rfoot -16.8263 -13.9378
rtoes 11.621
lfemur 3.15806 -1.11943 -18.2662
ltibia 0.774913
lfoot -8.44671 -4.71509
ltoes 27.3443
301
root 2.84241 18.2677 7.3535 6.43948 3.37834 0.34271
lowerback -7.50584 0.996968 0.215495
upperback -2.35279 1.35877 -2.01013
thorax 1.83121 0.676475 -2.07111
lowerneck 2.29303 -3.00787 -3.19265
upperneck -5.78834 -3.7763 7.00909
head -2.04024 -1.99265 2.91672
rclavicle -1.97915e-014 -2.06736e-014
rhumerus -36.8423 0.60117 -84.2196
rradius 35.7667
rwrist -5.28587
rhand -9.27538 320.562
rfingers 7.12502
rthumb 16.6813 651.259
lclavicle -1.97915e-014 -2.06736e-014
lhumerus -389.089 -10.2352 -274.027
lradius 33.7727
lwrist 14.3439
lhand -3.67734 -15.3264
lfingers 7.12502
lthumb 22.0638 13.4349
rfemur 6.95749 8.08872 22.9369
rtibia -3.17858
rfoot -16.7354 -14.1332
rtoes 11.372
lfemur 3.25925 -1.25848 -18.431
ltibia 0.6089
lfoot -8.46032 -4.50373
ltoes 27.4092
302
root 2.87624 18.2689 7.34194 6.31503 3.45488 0.423697
lowerback -7.4861 0.970941 0.182533
upperback -2.31991 1.32658 -1.99509
thorax 1.85186 0.660668 -2.03994
lowerneck 2.14565 -3.03663 -3.19854
upperneck -5.36053 -3.83831 6.90665
head -1.8711 -2.01442 2.86883
rclavicle 2.42269e-015 -2.14687e-014
rhumerus -36.3838 1.3147 -84.3102
rradius 36.7624
rwrist -6.33678
rhand -9.34573 320.864
rfingers 7.12502
rthumb 16.6136 651.555
lclavicle 2.42269e-015 -2.14687e-014
lhumerus -388.436 -10.9779 -273.572
lradius 34.8681
lwrist 14.4952
lhand -3.38128 -16.0094
lfingers 7.12502
lthumb 22.348 12.7181
rfemur 6.98614 7.50762 22.6232
rtibia -3.13569
rfoot -16.3456 -13.9723
rtoes 9.80211
lfemur 3.48184 -1.3725 -18.7442
ltibia 0.426701
lfoot -8.42818 -4.42859
ltoes 27.6526
